<svg width="164" height="48" viewBox="0 0 164 48" fill="none" xmlns="http://www.w3.org/2000/svg">
<path d="M74.5636 35.6455L60.5252 20.1353L60.7876 27.3538V35.6129H57.0156V12.7866H58.3932L72.3332 28.1017L72.0708 21.1433V12.8517H75.8756V35.6455H74.5636ZM89.1358 33.3554C88.7047 34.1915 88.03 34.8233 87.1116 35.2506C86.1932 35.6594 85.2092 35.8638 84.1596 35.8638C82.8476 35.8638 81.7043 35.4829 80.7296 34.7211C79.7737 33.9593 79.2958 32.9466 79.2958 31.6831C79.2583 30.1409 79.7269 28.9704 80.7015 28.1714C81.6949 27.3538 82.9788 26.9451 84.5532 26.9451C86.0339 26.9451 87.374 27.2795 88.5735 27.9484V26.6106C88.5735 25.7931 88.2455 25.1799 87.5895 24.7711C86.9523 24.3624 86.1838 24.1673 85.2841 24.1858C84.4032 24.2044 83.5504 24.2973 82.7257 24.4646C81.9011 24.6318 81.2544 24.8362 80.7859 25.0777L80.336 22.9038C81.723 22.1977 83.3911 21.8447 85.3404 21.8447C87.1772 21.8447 88.6672 22.2256 89.8105 22.9874C90.9726 23.7306 91.5536 24.9662 91.5536 26.6942V31.9897C91.5536 32.4171 91.5536 32.7144 91.5536 32.8816C91.5724 33.0302 91.6192 33.2253 91.6942 33.4669C91.7879 33.6898 91.9285 33.8292 92.1159 33.8849C92.3221 33.9407 92.6032 33.95 92.9593 33.9128L93.0156 35.6408C92.2846 35.7523 91.638 35.808 91.0757 35.808C90.5134 35.808 90.0542 35.6129 89.6981 35.2227C89.342 34.814 89.1545 34.1915 89.1358 33.3554ZM88.5735 31.0142V29.8994C87.4677 29.2491 86.2963 28.9425 85.0592 28.9797C84.272 28.9982 83.616 29.2305 83.0912 29.6764C82.5664 30.1224 82.304 30.7355 82.304 31.5159C82.304 32.1477 82.5477 32.6308 83.035 32.9652C83.5223 33.2997 84.1033 33.4669 84.7781 33.4669C85.6777 33.4669 86.4931 33.2625 87.224 32.8537C87.9737 32.4264 88.4236 31.8132 88.5735 31.0142ZM95.0937 18.0264C95.0937 17.4689 95.2717 17.0323 95.6279 16.7164C96.0027 16.4006 96.4432 16.2426 96.9492 16.2426C97.4553 16.2426 97.8864 16.4006 98.2425 16.7164C98.5986 17.0323 98.7767 17.4689 98.7767 18.0264C98.7767 18.6024 98.5986 19.0483 98.2425 19.3642C97.8864 19.68 97.4647 19.838 96.9773 19.838C96.4713 19.838 96.0308 19.68 95.656 19.3642C95.2811 19.0483 95.0937 18.6024 95.0937 18.0264ZM98.4674 22.3185V35.6129H95.4029V22.3185H98.4674ZM104.345 28.7288C104.345 30.0109 104.663 31.0607 105.301 31.8782C105.938 32.6958 106.856 33.1046 108.056 33.1046C109.199 33.1046 110.08 32.7051 110.699 31.9061C111.317 31.1071 111.626 30.048 111.626 28.7288C111.626 27.4282 111.308 26.3505 110.671 25.4958C110.052 24.6411 109.162 24.2137 108 24.2137C106.819 24.2137 105.91 24.6411 105.273 25.4958C104.654 26.3505 104.345 27.4282 104.345 28.7288ZM111.711 15.0999H114.578C114.578 16.9951 114.569 19.7544 114.55 23.3776C114.55 26.9822 114.55 29.7229 114.55 31.5995C114.55 31.934 114.55 32.1662 114.55 32.2963C114.569 32.4264 114.597 32.6029 114.635 32.8258C114.691 33.0302 114.766 33.1696 114.86 33.2439C114.953 33.3182 115.094 33.3833 115.281 33.439C115.469 33.4762 115.712 33.4855 116.012 33.4669V35.5293C113.388 36.0124 112.076 35.3157 112.076 33.439V32.8816C111.701 33.792 111.083 34.5074 110.221 35.0277C109.377 35.5479 108.44 35.808 107.409 35.808C105.441 35.808 103.923 35.1391 102.855 33.8013C101.805 32.4449 101.28 30.7541 101.28 28.7288C101.243 26.7778 101.749 25.1149 102.799 23.7399C103.848 22.3649 105.338 21.6775 107.269 21.6775C109.405 21.6775 110.886 22.4207 111.711 23.9071V15.0999ZM118.447 18.0264C118.447 17.4689 118.625 17.0323 118.981 16.7164C119.356 16.4006 119.796 16.2426 120.302 16.2426C120.808 16.2426 121.239 16.4006 121.595 16.7164C121.951 17.0323 122.129 17.4689 122.129 18.0264C122.129 18.6024 121.951 19.0483 121.595 19.3642C121.239 19.68 120.817 19.838 120.33 19.838C119.824 19.838 119.384 19.68 119.009 19.3642C118.634 19.0483 118.447 18.6024 118.447 18.0264ZM121.82 22.3185V35.6129H118.756V22.3185H121.82ZM128.428 35.4736C128.072 35.7895 127.631 35.9474 127.106 35.9474C126.582 35.9474 126.132 35.7895 125.757 35.4736C125.401 35.1391 125.223 34.7211 125.223 34.2194C125.223 33.6806 125.401 33.2532 125.757 32.9373C126.113 32.6215 126.563 32.4635 127.106 32.4635C127.65 32.4635 128.1 32.6215 128.456 32.9373C128.812 33.2532 128.99 33.6806 128.99 34.2194C128.99 34.7211 128.803 35.1391 128.428 35.4736ZM135.397 27.4189H136.803C139.877 27.4189 141.414 25.663 141.414 22.1513H144.309C144.403 25.4215 143.222 27.614 140.767 28.7288L144.984 35.3064V35.6129H141.92L138.18 29.7043C137.824 29.7972 137.346 29.8437 136.747 29.8437H135.397V35.6129H132.361V15.2393H135.397V27.4189ZM156.461 28.8682V25.022C155.561 24.6132 154.615 24.4088 153.621 24.4088C152.328 24.4088 151.288 24.7897 150.501 25.5515C149.713 26.2948 149.301 27.4003 149.264 28.8682C149.264 30.2246 149.582 31.3022 150.22 32.1012C150.951 32.9373 151.906 33.3554 153.087 33.3554C154.193 33.3554 155.027 32.9002 155.589 31.9897C156.17 31.0607 156.461 30.0202 156.461 28.8682ZM147.268 41.438L147.605 38.9017C148.542 39.3848 149.507 39.7378 150.501 39.9608C151.494 40.2024 152.459 40.286 153.396 40.2117C154.352 40.1559 155.13 39.775 155.73 39.0689C156.33 38.3629 156.63 37.3595 156.63 36.0589V33.439C155.861 35.0741 154.399 35.8917 152.244 35.8917C150.594 35.8917 149.179 35.2878 147.999 34.08C146.818 32.8537 146.227 31.1164 146.227 28.8682C146.265 26.527 146.996 24.7711 148.42 23.6006C149.845 22.43 151.672 21.8633 153.903 21.9004C155.721 21.9004 157.576 22.3185 159.469 23.1546V36.0589C159.469 37.7683 159.085 39.1804 158.316 40.2953C157.548 41.4101 156.564 42.1533 155.364 42.5249C154.165 42.8966 152.853 42.9895 151.428 42.8037C150.004 42.6178 148.617 42.1626 147.268 41.438Z" fill="white"/>
<path d="M24.2104 45.6774C36.287 45.6774 46.0771 35.9721 46.0771 24C46.0771 12.0279 36.287 2.32257 24.2104 2.32257C12.1338 2.32257 2.34375 12.0279 2.34375 24C2.34375 35.9721 12.1338 45.6774 24.2104 45.6774Z" fill="#FFC822"/>
<path d="M32.4115 34.9007L20.0412 22.4516V34.8387H15.3867V13.0684H16.8549L29.1315 25.4555V13.1613H33.8172V34.9007H32.4115Z" fill="#353535"/>
</svg>
