<svg width="22" height="22" viewBox="0 0 22 22" fill="none" xmlns="http://www.w3.org/2000/svg">
<path d="M3.66797 6.41675H18.3346" stroke="#929292" stroke-width="2.5" stroke-linecap="round" stroke-linejoin="round"/>
<path d="M9.16797 10.0833V15.5833" stroke="#929292" stroke-width="1.5" stroke-linecap="round" stroke-linejoin="round"/>
<path d="M12.832 10.0833V15.5833" stroke="#929292" stroke-width="1.5" stroke-linecap="round" stroke-linejoin="round"/>
<path d="M4.58203 6.41675L5.4987 17.4167C5.4987 17.903 5.69185 18.3693 6.03567 18.7131C6.37949 19.0569 6.8458 19.2501 7.33203 19.2501H14.6654C15.1516 19.2501 15.6179 19.0569 15.9617 18.7131C16.3055 18.3693 16.4987 17.903 16.4987 17.4167L17.4154 6.41675" stroke="#929292" stroke-width="1.5" stroke-linecap="round" stroke-linejoin="round"/>
<path d="M8.25 6.41667V3.66667C8.25 3.42355 8.34658 3.19039 8.51849 3.01849C8.69039 2.84658 8.92355 2.75 9.16667 2.75H12.8333C13.0764 2.75 13.3096 2.84658 13.4815 3.01849C13.6534 3.19039 13.75 3.42355 13.75 3.66667V6.41667" stroke="#929292" stroke-width="1.5" stroke-linecap="round" stroke-linejoin="round"/>
</svg>
