<svg width="110" height="78" viewBox="0 0 110 78" fill="none" xmlns="http://www.w3.org/2000/svg">
<g clip-path="url(#clip0)">
<path d="M34.2767 43.1343C42.6146 43.1343 49.3737 36.3752 49.3737 28.0373C49.3737 19.6995 42.6146 12.9403 34.2767 12.9403C25.9388 12.9403 19.1797 19.6995 19.1797 28.0373C19.1797 36.3752 25.9388 43.1343 34.2767 43.1343Z" fill="#136DB2"/>
<path d="M11.332 68V60.4445C11.332 56.4367 12.9241 52.5932 15.758 49.7594C18.5919 46.9253 22.4354 45.3333 26.4431 45.3333H41.5543C45.562 45.3333 49.4055 46.9253 52.2393 49.7594C55.0734 52.5932 56.6654 56.4367 56.6654 60.4445V68" fill="#136DB2"/>
<path d="M35.7281 49.4017L37.9657 45.3333H30.0323L32.2699 49.4017H35.7281Z" fill="#BC8E00"/>
<path d="M40.1016 63.3504L35.7281 50.315H32.2699L27.8964 63.3504L33.999 68L40.1016 63.3504Z" fill="#BC8E00"/>
</g>
<g clip-path="url(#clip1)">
<path d="M76.2767 43.1343C84.6146 43.1343 91.3737 36.3752 91.3737 28.0373C91.3737 19.6995 84.6146 12.9403 76.2767 12.9403C67.9388 12.9403 61.1797 19.6995 61.1797 28.0373C61.1797 36.3752 67.9388 43.1343 76.2767 43.1343Z" fill="#136DB2"/>
<path d="M53.332 68V60.4445C53.332 56.4367 54.9241 52.5932 57.758 49.7594C60.5919 46.9253 64.4354 45.3333 68.4431 45.3333H83.5543C87.562 45.3333 91.4055 46.9253 94.2393 49.7594C97.0734 52.5932 98.6654 56.4367 98.6654 60.4445V68" fill="#136DB2"/>
<path d="M77.7281 49.4017L79.9657 45.3333H72.0323L74.2699 49.4017H77.7281Z" fill="#BC8E00"/>
<path d="M82.1016 63.3504L77.7281 50.315H74.2699L69.8964 63.3504L75.999 68L82.1016 63.3504Z" fill="#BC8E00"/>
</g>
<g clip-path="url(#clip2)">
<path d="M55.3172 49.4776C64.8812 49.4776 72.6343 41.7245 72.6343 32.1604C72.6343 22.5964 64.8812 14.8433 55.3172 14.8433C45.7531 14.8433 38 22.5964 38 32.1604C38 41.7245 45.7531 49.4776 55.3172 49.4776Z" fill="#1E90FF"/>
<path d="M29 78V69.3333C29 64.7362 30.8262 60.3275 34.0768 57.0769C37.3275 53.8261 41.7362 52 46.3333 52H63.6667C68.2638 52 72.6725 53.8261 75.9231 57.0769C79.1739 60.3275 81 64.7362 81 69.3333V78" fill="#1E90FF"/>
<path d="M56.9833 56.6667L59.55 52H50.45L53.0167 56.6667H56.9833Z" fill="#FFC822"/>
<path d="M62 72.6667L56.9833 57.7143H53.0167L48 72.6667L55 78L62 72.6667Z" fill="#FFC822"/>
</g>
<defs>
<clipPath id="clip0">
<rect width="68" height="68" fill="white"/>
</clipPath>
<clipPath id="clip1">
<rect width="68" height="68" fill="white" transform="translate(42)"/>
</clipPath>
<clipPath id="clip2">
<rect width="78" height="78" fill="white" transform="translate(16)"/>
</clipPath>
</defs>
</svg>
