<svg width="20" height="20" viewBox="0 0 20 20" fill="none" xmlns="http://www.w3.org/2000/svg">
<path d="M16.6654 9.16667C16.4616 7.70018 15.7813 6.34139 14.7292 5.29958C13.6772 4.25778 12.3118 3.59077 10.8434 3.4013C9.37502 3.21182 7.88505 3.5104 6.60303 4.25104C5.32102 4.99168 4.31807 6.13328 3.7487 7.5M3.33203 4.16667V7.5H6.66537" stroke="#929292" stroke-width="1.5" stroke-linecap="round" stroke-linejoin="round"/>
<path d="M3.33203 10.8333C3.53583 12.2998 4.21614 13.6586 5.26817 14.7004C6.32019 15.7422 7.68557 16.4092 9.15397 16.5987C10.6224 16.7882 12.1123 16.4896 13.3944 15.749C14.6764 15.0083 15.6793 13.8667 16.2487 12.5M16.6654 15.8333V12.5H13.332" stroke="#929292" stroke-width="1.5" stroke-linecap="round" stroke-linejoin="round"/>
</svg>
