<svg width="23" height="24" viewBox="0 0 23 24" fill="none" xmlns="http://www.w3.org/2000/svg">
<g clip-path="url(#clip0)">
<path d="M19.6515 3.48769C17.4894 1.23993 14.6144 0.00137141 11.5513 0C5.23927 0 0.102573 5.33475 0.100046 11.8919C0.0993101 13.9879 0.626473 16.034 1.62847 17.8375L0.00390625 24L6.07434 22.3464C7.74686 23.294 9.63 23.7933 11.5464 23.7941H11.5512H11.5513C17.8623 23.7941 22.9997 18.4584 23.0024 11.9016C23.0035 8.72364 21.8134 5.73561 19.6515 3.48769ZM11.5513 21.7855H11.5476C9.83942 21.7846 8.16436 21.3081 6.7033 20.4075L6.35559 20.1933L2.75327 21.1745L3.71504 17.527L3.48849 17.1531C2.53568 15.5792 2.03268 13.7603 2.03339 11.8927C2.03549 6.44258 6.30492 2.00867 11.5549 2.00867C14.0972 2.00976 16.4867 3.03926 18.2838 4.90754C20.0807 6.77579 21.0697 9.25938 21.0689 11.9007C21.0667 17.351 16.7971 21.7855 11.5513 21.7855Z" fill="#E0E0E0"/>
<path d="M0.527344 23.3163L2.0777 17.4353C1.12123 15.7141 0.61824 13.7614 0.618844 11.7615C0.621352 5.504 5.52346 0.413086 11.5466 0.413086C14.4699 0.414457 17.2137 1.59638 19.2766 3.74152C21.3399 5.88664 22.4755 8.73798 22.4744 11.7704C22.4718 18.0281 17.5694 23.1194 11.547 23.1194C11.5466 23.1194 11.5473 23.1194 11.547 23.1194H11.5422C9.71336 23.1188 7.91638 22.6419 6.32037 21.7382L0.527344 23.3163Z" fill="url(#paint0_linear)"/>
<path fill-rule="evenodd" clip-rule="evenodd" d="M8.7196 6.84321C8.50775 6.35387 8.28469 6.34408 8.08314 6.33551C7.91828 6.32817 7.72954 6.32862 7.54111 6.32862C7.35253 6.32862 7.04608 6.40224 6.78693 6.69627C6.52763 6.9903 5.79688 7.70111 5.79688 9.14675C5.79688 10.5925 6.81051 11.9895 6.95179 12.1857C7.09323 12.3817 8.90849 15.4432 11.7833 16.6209C14.1726 17.5998 14.6588 17.4051 15.1774 17.3561C15.696 17.3071 16.8507 16.6454 17.0865 15.9593C17.3222 15.2732 17.3222 14.6852 17.2515 14.5623C17.1808 14.4398 16.9922 14.3664 16.7093 14.2194C16.4264 14.0725 15.0359 13.3615 14.7766 13.2636C14.5173 13.1656 14.3288 13.1166 14.1402 13.4108C13.9516 13.7047 13.4099 14.3664 13.2448 14.5623C13.0798 14.7586 12.9148 14.7831 12.632 14.6362C12.3491 14.4888 11.4381 14.1788 10.3575 13.1778C9.51666 12.3991 8.94899 11.4372 8.78398 11.1431C8.61897 10.8492 8.76629 10.69 8.90818 10.5435C9.03518 10.4119 9.19106 10.2005 9.33249 10.0289C9.47363 9.85736 9.52077 9.73491 9.61507 9.53899C9.70936 9.34276 9.66221 9.1712 9.59149 9.02426C9.52077 8.87733 8.97109 7.42422 8.7196 6.84321Z" fill="white"/>
<path d="M19.5549 3.44987C17.4176 1.22791 14.5756 0.00358827 11.5476 0.00219727C5.30808 0.00219727 0.230347 5.2757 0.227839 11.7576C0.227104 13.8296 0.748213 15.8521 1.7387 17.6349L0.132812 23.7267L6.13356 22.092C7.7869 23.0287 9.64842 23.5223 11.5428 23.5231H11.5476H11.5476C17.7862 23.5231 22.8646 18.2487 22.8673 11.7671C22.8683 8.6257 21.6919 5.67198 19.5549 3.44987ZM11.5476 21.5376H11.544C9.85542 21.5367 8.19958 21.0658 6.7553 20.1754L6.41157 19.9637L2.85061 20.9337L3.80133 17.3281L3.57738 16.9584C2.63551 15.4026 2.13827 13.6046 2.13901 11.7584C2.14106 6.37085 6.36148 1.98784 11.5512 1.98784C14.0644 1.98892 16.4264 3.00661 18.2029 4.85343C19.9792 6.70025 20.9567 9.1553 20.956 11.7664C20.9538 17.154 16.7332 21.5376 11.5476 21.5376Z" fill="white"/>
</g>
<defs>
<linearGradient id="paint0_linear" x1="11.5009" y1="23.3163" x2="11.5009" y2="0.413124" gradientUnits="userSpaceOnUse">
<stop stop-color="#20B038"/>
<stop offset="1" stop-color="#60D66A"/>
</linearGradient>
<clipPath id="clip0">
<rect width="23" height="24" fill="white"/>
</clipPath>
</defs>
</svg>
